
<svg width="375" height="576" viewBox="0 0 375 576" fill="none" xmlns="http://www.w3.org/2000/svg">
<mask id="mask0_1_3" style="mask-type:alpha" maskUnits="userSpaceOnUse" x="25" y="42" width="325" height="530">
<path d="M179.318 45.9808C184.381 41.8024 190.619 41.8024 195.682 45.9808L341.698 166.486C346.761 170.665 349.88 178.387 349.88 186.743V427.755C349.88 436.111 346.761 443.833 341.698 448.011L195.682 568.517C190.619 572.695 184.381 572.695 179.318 568.517L33.302 448.011C28.2391 443.833 25.1202 436.111 25.1202 427.755V186.743C25.1202 178.387 28.2391 170.665 33.302 166.486L179.318 45.9808Z" fill="black"/>
</mask>
<g mask="url(#mask0_1_3)">
<path d="M179.318 45.9808C184.381 41.8024 190.619 41.8024 195.682 45.9808L341.698 166.486C346.761 170.665 349.88 178.387 349.88 186.743V427.755C349.88 436.111 346.761 443.833 341.698 448.011L195.682 568.517C190.619 572.695 184.381 572.695 179.318 568.517L33.302 448.011C28.2391 443.833 25.1202 436.111 25.1202 427.755V186.743C25.1202 178.387 28.2391 170.665 33.302 166.486L179.318 45.9808Z" fill="black"/>
</g>
</svg>




<!-- ==========================================  -->
<svg class="home__blob" viewBox="0 0 550 591" xmlns="http://www.w3.org/2000/svg">
                        <mask id="maskBlob" mask-type="alpha">
                           <path d="M263 47.1782C270.426 42.891 279.574 42.891 287 47.1782L501.157 
                           170.822C508.583 175.109 513.157 183.032 513.157 191.606V438.894C513.157 
                           447.468 508.583 455.391 501.157 459.678L287 583.322C279.574 587.609 270.426 
                           587.609 263 583.322L48.843 459.678C41.4174 455.391 36.843 447.468 36.843 
                           438.894V191.606C36.843 183.032 41.4174 175.109 48.843 170.822L263 47.1782Z"/>
                        </mask>
                        <g mask="url(#maskBlob)">
                           <path d="M263 47.1782C270.426 42.891 279.574 42.891 287 47.1782L501.157 
                           170.822C508.583 175.109 513.157 183.032 513.157 191.606V438.894C513.157 
                           447.468 508.583 455.391 501.157 459.678L287 583.322C279.574 587.609 270.426 
                           587.609 263 583.322L48.843 459.678C41.4174 455.391 36.843 447.468 36.843 
                           438.894V191.606C36.843 183.032 41.4174 175.109 48.843 170.822L263 47.1782Z"/>
                     
                           <rect x="37" width="476" height="630" fill="url(#pattern0)"/>
                        </g>
                     
                        <rect x="37" width="476" height="300" fill="url(#pattern1)"/>
                     
                        <defs>
                           <pattern id="pattern0" patternContentUnits="objectBoundingBox" width="1" height="1">
                              <use href="#imageBlob" transform="matrix(0.00143057 0 0 0.00108108 0.0404062 0)"/>
                           </pattern>
                     
                           <pattern id="pattern1" patternContentUnits="objectBoundingBox" width="1" height="1">
                              <use href="#imageBlob" transform="matrix(0.00143057 0 0 0.00226984 0.0404062 0)"/>
                           </pattern>
                     
                           <image class="home__img" id="imageBlob" width="640" height="925" href="img/profile-removebg-preview.png"/>
                        </defs>
                     </svg>